<svg width="153" height="29" viewBox="0 0 153 29" fill="none" xmlns="http://www.w3.org/2000/svg">
<path d="M20.2891 23.6836C18.6094 25.3242 16.9232 26.5286 15.2305 27.2969C13.5378 28.0651 11.6237 28.4492 9.48828 28.4492C6.66276 28.4492 4.39714 27.7656 2.69141 26.3984C0.998698 25.0312 0.152344 23.2344 0.152344 21.0078C0.152344 19.0677 0.848958 17.3685 2.24219 15.9102C3.63542 14.4388 5.77083 13.4167 8.64844 12.8438C5.875 11.7891 4.48828 10.0117 4.48828 7.51172C4.48828 5.51953 5.44531 3.80078 7.35938 2.35547C9.27344 0.897135 11.5781 0.167969 14.2734 0.167969C16.2135 0.167969 17.6198 0.552083 18.4922 1.32031C19.3646 2.07552 19.8008 2.76562 19.8008 3.39062C19.8008 3.78125 19.4753 4.38672 18.8242 5.20703C18.1732 6.02734 17.6979 6.4375 17.3984 6.4375C17.0469 6.4375 16.793 5.94271 16.6367 4.95312C16.2721 2.73958 15.3802 1.63281 13.9609 1.63281C12.8542 1.63281 11.8516 2.2513 10.9531 3.48828C10.0547 4.72526 9.60547 6.125 9.60547 7.6875C9.60547 10.1875 10.8294 11.4375 13.2773 11.4375C13.681 11.4375 13.9544 11.4635 14.0977 11.5156C14.2409 11.5547 14.3125 11.6654 14.3125 11.8477C14.3125 12.3424 14.2148 12.8893 14.0195 13.4883C13.8242 14.0742 13.5768 14.3672 13.2773 14.3672C13.1862 14.3672 12.8607 14.3346 12.3008 14.2695C11.7409 14.1914 11.2526 14.1523 10.8359 14.1523C9.45573 14.1523 8.27083 14.7188 7.28125 15.8516C6.29167 16.9844 5.79688 18.3516 5.79688 19.9531C5.79688 21.6849 6.3763 23.1237 7.53516 24.2695C8.69401 25.4023 10.1589 25.9688 11.9297 25.9688C13.388 25.9688 14.8464 25.5781 16.3047 24.7969C17.763 24.0156 19.0911 22.8958 20.2891 21.4375V23.6836ZM47.3789 23.6836C44.3841 26.8867 41.6367 28.4883 39.1367 28.4883C37.7565 28.4883 36.6628 28 35.8555 27.0234C35.0482 26.0469 34.599 24.6536 34.5078 22.8438C32.9323 24.7578 31.5326 26.1771 30.3086 27.1016C29.0977 28.026 27.8021 28.4883 26.4219 28.4883C24.651 28.4883 23.2253 27.7266 22.1445 26.2031C21.0768 24.6667 20.543 22.6224 20.543 20.0703C20.543 17.0234 21.2461 13.8854 22.6523 10.6562C24.0586 7.41406 26.1419 4.85547 28.9023 2.98047C31.6628 1.10547 35.0091 0.167969 38.9414 0.167969C41.8841 0.167969 44.5469 0.565104 46.9297 1.35938V2.64844C44.9896 4.91406 43.362 8.08464 42.0469 12.1602C40.7448 16.2357 40.0938 19.3411 40.0938 21.4766C40.0938 22.5182 40.3021 23.3255 40.7188 23.8984C41.1484 24.4714 41.7409 24.7578 42.4961 24.7578C43.8503 24.7578 45.4779 23.651 47.3789 21.4375V23.6836ZM41.6953 2.64844C40.4974 1.9974 39.2083 1.67188 37.8281 1.67188C35.6536 1.67188 33.694 2.58333 31.9492 4.40625C30.2044 6.21615 28.8242 8.61849 27.8086 11.6133C26.806 14.6081 26.3047 17.2057 26.3047 19.4062C26.3047 20.8776 26.5846 22.0755 27.1445 23C27.7174 23.9115 28.4466 24.3672 29.332 24.3672C30.8685 24.3672 32.6328 22.9674 34.625 20.168C35.4453 12.8242 37.8021 6.98438 41.6953 2.64844ZM58.0039 24.4844L60.5039 25.5391C61.3112 25.8906 61.9688 26.1315 62.4766 26.2617C62.9974 26.3789 63.4922 26.4375 63.9609 26.4375C66.1224 26.4375 67.8542 25.0247 69.1562 22.1992C70.4714 19.3607 71.1289 16.3203 71.1289 13.0781C71.1289 9.65365 70.2956 6.89974 68.6289 4.81641C66.9753 2.72005 64.8073 1.67188 62.125 1.67188C59.9766 1.67188 57.9583 2.44661 56.0703 3.99609C54.1953 5.53255 53.2578 7.16016 53.2578 8.87891C53.2578 10.168 53.8047 11.0469 54.8984 11.5156C55.3672 11.737 55.6016 12.0299 55.6016 12.3945C55.6016 12.7721 55.0872 13.1823 54.0586 13.625C53.043 14.0677 52.4245 14.2891 52.2031 14.2891C51.5391 14.2891 50.9531 13.9049 50.4453 13.1367C49.9375 12.3555 49.6836 11.4961 49.6836 10.5586C49.6836 8.07161 50.9792 5.71484 53.5703 3.48828C56.1745 1.2487 59.5599 0.128906 63.7266 0.128906C67.7109 0.128906 70.888 1.22917 73.2578 3.42969C75.6276 5.61719 76.8125 8.55339 76.8125 12.2383C76.8125 15.0508 76.0768 17.7201 74.6055 20.2461C73.1471 22.7721 71.1745 24.7773 68.6875 26.2617C66.2135 27.7461 63.5898 28.4883 60.8164 28.4883C58.4857 28.4883 56.3112 27.9805 54.293 26.9648C52.6654 27.9805 51.2526 28.4883 50.0547 28.4883C49.3776 28.4883 48.8047 28.293 48.3359 27.9023C47.8802 27.5117 47.6523 27.0365 47.6523 26.4766C47.6523 25.5651 48.1276 24.7969 49.0781 24.1719C50.0286 23.5469 51.2201 23.2344 52.6523 23.2344C53.668 23.2344 54.638 23.3971 55.5625 23.7227C56.3828 23.0456 56.9427 22.2318 57.2422 21.2812C57.5417 20.3307 57.8411 18.651 58.1406 16.2422C58.4401 13.8333 58.9089 11.9388 59.5469 10.5586C60.1849 9.17839 61.1224 8.02604 62.3594 7.10156C63.6094 6.16406 64.8659 5.6237 66.1289 5.48047L66.8906 6.51562C66.0833 7.33594 65.4779 8.16927 65.0742 9.01562C64.6836 9.86198 64.3255 11.6849 64 14.4844C63.6875 17.2708 63.0755 19.3672 62.1641 20.7734C61.2656 22.1667 59.8789 23.4036 58.0039 24.4844ZM98.1602 3.68359C98.1602 4.19141 97.3203 5.44141 95.6406 7.43359H95.2891C95.0286 7.32943 94.8659 6.94531 94.8008 6.28125C94.6576 4.9401 94.1953 3.84635 93.4141 3C92.6328 2.14062 91.6953 1.71094 90.6016 1.71094C89.5729 1.71094 88.6875 2.08854 87.9453 2.84375C87.2031 3.58594 86.832 4.47786 86.832 5.51953C86.832 6.27474 87.0664 7.08854 87.5352 7.96094C88.0039 8.82031 89.2214 10.1875 91.1875 12.0625C93.1667 13.9375 94.4362 15.4349 94.9961 16.5547C95.556 17.6615 95.8359 18.7161 95.8359 19.7188C95.8359 22.0365 94.8268 24.0807 92.8086 25.8516C90.8034 27.6094 88.4531 28.4883 85.7578 28.4883C83.5312 28.4883 81.6953 27.974 80.25 26.9453C78.8047 25.9036 78.082 25.0573 78.082 24.4062C78.082 24.0417 78.4792 23.1953 79.2734 21.8672C80.0677 20.5391 80.5234 19.875 80.6406 19.875C81.0573 19.875 81.3503 19.9987 81.5195 20.2461C81.7018 20.4805 81.8255 20.9232 81.8906 21.5742C82.0859 23.6055 82.5742 25.0052 83.3555 25.7734C84.1497 26.5417 85.1784 26.9258 86.4414 26.9258C87.8216 26.9258 89.026 26.4505 90.0547 25.5C91.0833 24.5365 91.5977 23.4232 91.5977 22.1602C91.5977 21.5091 91.3958 20.819 90.9922 20.0898C90.6016 19.3477 89.4753 18.0977 87.6133 16.3398C85.7643 14.569 84.5534 13.0716 83.9805 11.8477C83.4076 10.6237 83.1211 9.43229 83.1211 8.27344C83.1211 6.25521 83.8828 4.39974 85.4062 2.70703C86.9297 1.01432 88.9544 0.167969 91.4805 0.167969C93.3945 0.167969 94.9831 0.610677 96.2461 1.49609C97.5221 2.36849 98.1602 3.09766 98.1602 3.68359ZM113.707 0.480469C110.751 3.30599 108.603 6.32031 107.262 9.52344C105.921 12.7135 105.25 15.793 105.25 18.7617C105.25 20.6628 105.628 22.1667 106.383 23.2734C107.138 24.3672 108.16 24.9141 109.449 24.9141C112.027 24.9141 114.71 22.6615 117.496 18.1562C120.296 13.638 121.695 9.45182 121.695 5.59766C121.695 4.45182 121.507 3.54036 121.129 2.86328C120.764 2.1862 120.276 1.84766 119.664 1.84766C118.531 1.84766 117.477 2.70052 116.5 4.40625C115.536 6.11198 115.055 7.62891 115.055 8.95703C115.055 9.90755 115.497 10.4414 116.383 10.5586C116.747 10.5977 116.93 10.7734 116.93 11.0859C116.93 11.6589 116.637 12.2253 116.051 12.7852C115.465 13.332 114.853 13.6055 114.215 13.6055C113.434 13.6055 112.776 13.2539 112.242 12.5508C111.721 11.8346 111.461 10.9427 111.461 9.875C111.461 7.6224 112.307 5.44141 114 3.33203C115.706 1.22266 117.444 0.167969 119.215 0.167969C120.426 0.167969 121.383 0.64974 122.086 1.61328C122.789 2.5638 123.141 3.87891 123.141 5.55859C123.141 8.80078 122.242 12.2513 120.445 15.9102C118.648 19.569 116.402 22.5768 113.707 24.9336C111.012 27.2773 108.473 28.4492 106.09 28.4492C104.241 28.4492 102.711 27.668 101.5 26.1055C100.302 24.543 99.7031 22.5312 99.7031 20.0703C99.7031 17.4531 100.224 14.8034 101.266 12.1211C102.32 9.4388 103.688 7.04948 105.367 4.95312C107.047 2.84375 108.382 1.52214 109.371 0.988281C110.361 0.441406 111.806 0.167969 113.707 0.167969V0.480469ZM142.164 22.6094C143.258 19.8229 144.326 15.7669 145.367 10.4414C146.096 6.5612 146.949 3.87891 147.926 2.39453C148.902 0.910156 150.048 0.167969 151.363 0.167969C152.431 0.167969 152.965 0.779948 152.965 2.00391C152.965 2.70703 152.828 3.20833 152.555 3.50781C152.294 3.79427 151.747 3.99609 150.914 4.11328C150.081 4.23047 149.332 4.69271 148.668 5.5C148.004 6.30729 147.392 7.97396 146.832 10.5L145.406 17.0039C144.898 19.2565 144.326 21.2227 143.688 22.9023C143.049 24.582 142.516 25.8255 142.086 26.6328C141.656 27.4401 141.376 27.8893 141.246 27.9805C141.116 28.0716 140.79 28.1432 140.27 28.1953L138.16 28.4492C137.665 28.4753 137.392 28.3776 137.34 28.1562C137.301 27.9349 137.236 27.0951 137.145 25.6367C137.066 24.1784 136.975 23.0911 136.871 22.375C136.767 21.6458 136.389 19.6732 135.738 16.457C135.087 13.2409 134.651 9.99219 134.43 6.71094C134.339 6.76302 133.792 8.61198 132.789 12.2578C131.799 15.8906 131.116 18.3255 130.738 19.5625C130.374 20.7865 129.859 22.1016 129.195 23.5078C128.531 24.901 127.678 26.0729 126.637 27.0234C125.595 27.974 124.358 28.4492 122.926 28.4492C121.676 28.4492 120.667 28.0586 119.898 27.2773C119.143 26.4831 118.766 25.7474 118.766 25.0703C118.766 24.6536 119.221 24.0221 120.133 23.1758C121.057 22.3164 121.708 21.8867 122.086 21.8867C122.503 21.8867 122.763 22.349 122.867 23.2734C122.971 24.1849 123.199 24.8685 123.551 25.3242C123.915 25.7799 124.345 26.0078 124.84 26.0078C126.78 26.0078 128.688 22.3099 130.562 14.9141L131.148 12.5508C132.255 8.27995 133.141 5.1875 133.805 3.27344L134.43 1.4375C134.573 1.03385 134.71 0.786458 134.84 0.695312C134.983 0.604167 135.328 0.519531 135.875 0.441406L137.926 0.167969C138.225 0.115885 138.453 0.0898438 138.609 0.0898438C138.896 0.0898438 139.085 0.161458 139.176 0.304688C139.267 0.447917 139.312 0.721354 139.312 1.125C139.312 3.95052 139.742 7.74609 140.602 12.5117C141.474 17.2773 141.995 20.6432 142.164 22.6094Z" fill="white"/>
</svg>
